/* XPM */
static char *fa2d010a92574483d8e071e7447dea51RFwXoF5JPpUUcbuI[] = {
/* columns rows colors chars-per-pixel */
"32 32 53 1 ",
"  c black",
". c #464646",
"X c gray38",
"o c #FF8902",
"O c #FF9204",
"+ c #FF9705",
"@ c #FF9A05",
"# c #FF9E07",
"$ c #FFA207",
"% c #FFA308",
"& c #FFA709",
"* c #FFA809",
"= c #FFAD0A",
"- c #FFB30B",
"; c #FFB508",
": c #FFBB09",
"> c #FFBF0B",
", c #FFBA0C",
"< c #FFA312",
"1 c #FFAD1C",
"2 c #FFA622",
"3 c #FFA02B",
"4 c #FFAF3E",
"5 c #FFC40A",
"6 c #FFC20E",
"7 c #FFCD0B",
"8 c #FFC80C",
"9 c #FFD907",
"0 c #FFDF05",
"q c #FFD10A",
"w c #FFD509",
"e c #FFD808",
"r c #FFE006",
"t c #FFE404",
"y c #FFEB03",
"u c #FFEC02",
"i c #FFE804",
"p c #FFEE04",
"a c #FFF002",
"s c #EEE539",
"d c #FFAC49",
"f c #FFCC50",
"g c #FFC558",
"h c #FFD271",
"j c #B4B4B4",
"k c #CCCCB8",
"l c #FFEAA0",
"z c #FFF9BD",
"x c #FFFDBE",
"c c gray77",
"v c #FFFEE2",
"b c #FFFEF1",
"n c white",
/* pixels */
"    nnnn    nnnn    nnnn    nnnn",
"    nnnn    nnnn    nnnn    nnnn",
"    nnnn    nnnn    nnnn    nnnn",
"    nnnzxxxxzxxxxxz nnnn    nnnn",
"nnnn  zzxnxzzzxxxxxz    nnnn    ",
"nnnn zznnzzzznznznnzb   nnnn    ",
"nnnn zxznnxzznzznzxzx   nnnn    ",
"nnnn  znnzznz--$-$zzz   nnnn    ",
"    nnzzznnz-l$fh$1zznnn    nnnn",
"    nnz-znzz-$2*gg1kzjnn    nnnn",
"    nnn=zzdz#@+++-$jjcjj    nnnn",
"    nnn&%z<#34+no+-j..cjc   nnnn",
"nnnn   @&$%=&%+nnO@.  .jcnnn    ",
"nnnn   =*-&&,*#n##+,   jjcnn    ",
"nnnn   ,n>6,=6>nn-#-    jcnn    ",
"nnnn   ,nw5q7,,nn>;8    jcnn    ",
"    nnn7nqw8wq7n86:5nnnnjc  nnnn",
"    nnnenqw7e07vwwqwnnnjjj  nnnn",
"    nnnrn9wqryytyyrtnncjj   nnnn",
"    nnnutiituaanuprwccjj    nnnn",
"nnnn   tneuuippnrnicXXX nnnn    ",
"nnnn   qnnnt9rnnnnsX    nnnn    ",
"nnnn   8600wqqqeqw07    nnnn    ",
"nnnn    nnnn    nnnn    nnnn    ",
"    nnnn    nnnn    nnnn    nnnn",
"    nnnn    nnnn    nnnn    nnnn",
"    nnnn    nnnn    nnnn    nnnn",
"    nnnn    nnnn    nnnn    nnnn",
"nnnn    nnnn    nnnn    nnnn    ",
"nnnn    nnnn    nnnn    nnnn    ",
"nnnn    nnnn    nnnn    nnnn    ",
"nnnn    nnnn    nnnn    nnnn    "
};
