/* XPM */
static char *_14dc9245f1942a389e78ddb66b20496IFI2agbVuZH6HKAD[] = {
/* columns rows colors chars-per-pixel */
"32 32 102 2 ",
"   c black",
".  c #3C1D17",
"X  c #3B171A",
"o  c #3D1A1A",
"O  c #32241B",
"+  c #3B1A26",
"@  c #3C1E25",
"#  c #491F10",
"$  c #4B2214",
"%  c #4A2218",
"&  c #572D13",
"*  c #5B2B13",
"=  c #6B300F",
"-  c #791F26",
";  c #542D22",
":  c #5B353B",
">  c #68222E",
",  c #762320",
"<  c #742227",
"1  c #792227",
"2  c #673A23",
"3  c #653638",
"4  c #69353A",
"5  c #7C471C",
"6  c #74442A",
"7  c #5F3643",
"8  c #811F26",
"9  c #802027",
"0  c #8A262A",
"q  c #9E2C24",
"w  c #9B3729",
"e  c #A12D2B",
"r  c #B35E1C",
"t  c #B26219",
"y  c #9F5B24",
"u  c #A65427",
"i  c #A75A20",
"p  c #AE6422",
"a  c #B96C21",
"s  c #B6652D",
"d  c #BC6C29",
"f  c #B06534",
"g  c #B0653F",
"h  c #B26C39",
"j  c #C07329",
"k  c #C4762A",
"l  c #C87A2A",
"z  c #C87730",
"x  c #CB7C31",
"c  c #C2773E",
"v  c #C4783C",
"b  c #985B51",
"n  c #B66946",
"m  c #B66D45",
"M  c #CF8031",
"N  c #CD8137",
"B  c #D18B34",
"V  c #D78F37",
"C  c #D98F36",
"Z  c #D68539",
"A  c #D38B3B",
"S  c #D68D38",
"D  c #D78D3C",
"F  c #DA8C39",
"G  c #E1973D",
"H  c #DA9B48",
"J  c #D08A5D",
"K  c #E19340",
"L  c #E49C43",
"P  c #F29D57",
"I  c #F49E5C",
"U  c #DFA14B",
"Y  c #FEB74B",
"T  c #FBB24D",
"R  c #FDB34E",
"E  c #FEB74E",
"W  c #F9B451",
"Q  c #FCB356",
"!  c #FFB851",
"~  c #FDBC55",
"^  c #F1BA5E",
"/  c #F6BE5F",
"(  c #DC8967",
")  c #D59064",
"_  c #EA9D68",
"`  c #EEB862",
"'  c #E1A07E",
"]  c #EDB17C",
"[  c #FFC663",
"{  c #FEC566",
"}  c #F4C96E",
"|  c #FBCB6F",
" . c #FFD77F",
".. c #FFD87A",
"X. c #FEDD7F",
"o. c #EEB68B",
"O. c #F7BA8B",
"+. c #FBBB8C",
"@. c #FBBF8F",
"#. c #F7BE91",
"$. c #FDC493",
"%. c white",
/* pixels */
"        %.%.%.%.        %.%.%.%.        %.%.%.%.        %.%.%.%.",
"        %.%.%.%.        %.%.%.%.        %.%.%.%.        %.%.%.%.",
"        %.%.%.%.        %.%.%.p r r y   %.%.%.%.        %.%.%.%.",
"        %.%.%.%.        %.A A R ! ! E t t %.%.%.        %.%.%.%.",
"%.%.%.%.        %.%.%.%.  S S T G G E V V       %.%.%.%.        ",
"%.%.%.%.        %.%.%.%.  C C T k k Y ~ ~       %.%.%.%.        ",
"%.%.%.%.        %.%.%.%.l ` ` L R R W | | d     %.%.%.%.        ",
"%.%.%.%.        %.%.%.%.M U U ^ { { / H H x     %.%.%.%.        ",
"        %.%.%.%.        Z B B .. . .} a a F %.%.        %.%.%.%.",
"        %.%.%.%.        j z E F z z F s s D %.%.        %.%.%.%.",
"        %.%.%.%.        [ E z # $.$.# i i X.%.%.        %.%.%.%.",
"        %.%.%.%.        [ z z # $.$.# i i X.%.%.        %.%.%.%.",
"%.%.%.%.        %.%.q q K E z @.' ' O.u u w q q %.%.%.%.        ",
"%.%.%.%.        %.o b b q E z 2 ( ( 6 N w w b b @ %.%.%.        ",
"%.%.%.%.        %.o b b q E z 2 ( ( 6 w w w b b @ %.%.%.        ",
"%.%.%.%.        %.%.q q > ) E g n n m 5 5 > e e %.%.%.%.        ",
"        %.%.%.%.  X q q > o.o.#.J J +.o.o.> q q +       %.%.%.%.",
"        %.%.%.%.  X q q > o.o.#.J J +.o.o.> q q +       %.%.%.%.",
"        %.%.%.%.  > q q > > _ _ ] ] _ _ > > q q >       %.%.%.%.",
"        %.%.%.%.  & I I ; > > q . . q > > & P P &       %.%.%.%.",
"%.%.%.%.        %.& I I ; > > q . . q > > & P P & %.%.%.        ",
"%.%.%.%.        %.%.& & & . . v = = h . . & & & %.%.%.%.        ",
"%.%.%.%.        %.%.& & : > > . . . . > > 7 & & %.%.%.%.        ",
"%.%.%.%.        %.%.& & : > > . . . . > > 7 & & %.%.%.%.        ",
"        %.%.%.%.    3 3 > > > 8 , , 9 > > > 4 4         %.%.%.%.",
"        %.%.%.%.    * * > - - q 1 1 q 0 0 > & &         %.%.%.%.",
"        %.%.%.%.    * * > - - q 1 1 q 0 0 > & &         %.%.%.%.",
"        %.%.%.%.    O O & q q q < < q q q & O O         %.%.%.%.",
"%.%.%.%.        %.%.%.%.O $ $ c Q Q f % % O     %.%.%.%.        ",
"%.%.%.%.        %.%.%.%.O $ $ c Q Q f % % O     %.%.%.%.        ",
"%.%.%.%.        %.%.%.%.  O O O O O O O O       %.%.%.%.        ",
"%.%.%.%.        %.%.%.%.        %.%.%.%.        %.%.%.%.        "
};
