/* XPM */
static char *_e148a194e5e472eb1a8f26d0729a4d5mdYyMrU8Q70c1Wv8[] = {
/* columns rows colors chars-per-pixel */
"32 32 2 1 ",
"  c black",
". c white",
/* pixels */
"    ....    ....    ....    ....",
"    ....    ....    ....    ....",
"    ....    ....    ....    ....",
"    ....    ....    ....    ....",
"....    ....    ....    ....    ",
"....    ....    ....    ....    ",
"....    ....    ....    ....    ",
"....    ....    ....    ....    ",
"    ....    ....    ....    ....",
"    ....    ....    ....    ....",
"    ....    ....    ....    ....",
"    ....    ....    ....    ....",
"....    ....    ....    ....    ",
"....    ....    ....    ....    ",
"....    ....    ....    ....    ",
"....    ....    ....    ....    ",
"    ....    ....    ....    ....",
"    ....    ....    ....    ....",
"    ....    ....    ....    ....",
"    ....    ....    ....    ....",
"....    ....    ....    ....    ",
"....    ....    ....    ....    ",
"....    ....    ....    ....    ",
"....    ....    ....    ....    ",
"    ....    ....    ....    ....",
"    ....    ....    ....    ....",
"    ....    ....    ....    ....",
"    ....    ....    ....    ....",
"....    ....    ....    ....    ",
"....    ....    ....    ....    ",
"....    ....    ....    ....    ",
"....    ....    ....    ....    "
};
