/* XPM */
static char *result[] = {
/* columns rows colors chars-per-pixel */
"32 32 132 2 ",
"   c black",
".  c #4B2B21",
"X  c #4A2B22",
"o  c #4E2D21",
"O  c #4F2D22",
"+  c #4A2C27",
"@  c #4E2D26",
"#  c #4F2B2A",
"$  c #482D2A",
"%  c #4C2D28",
"&  c #4E2D28",
"*  c #4A2C2C",
"=  c #502929",
"-  c #50292C",
";  c #61372E",
":  c #6D492E",
">  c #784D2E",
",  c #674839",
"<  c #2D5B6B",
"1  c #6C4C43",
"2  c #7C5B46",
"3  c #7C5B47",
"4  c #7C5C45",
"5  c #7C5C46",
"6  c #7C5C47",
"7  c #7C5B48",
"8  c #7B5C48",
"9  c #7C5C48",
"0  c #AD3636",
"q  c #875E33",
"w  c #8F5F3F",
"e  c #8C6436",
"r  c #94683F",
"t  c #B4792E",
"y  c #B37A36",
"u  c #B27B36",
"i  c #B37B36",
"p  c #B57836",
"a  c #B47936",
"s  c #B47A36",
"d  c #B47A37",
"f  c #846544",
"g  c #906740",
"h  c #906641",
"j  c #906642",
"k  c #906643",
"l  c #906843",
"z  c #906944",
"x  c #906A45",
"c  c #B87B50",
"v  c #B6803A",
"b  c #D68B26",
"n  c #D58C26",
"m  c #D88A25",
"M  c #D5902D",
"N  c #D9932D",
"B  c #C18A3A",
"V  c #CC923D",
"C  c #D69433",
"Z  c #DE9430",
"A  c #DB9637",
"S  c #D39936",
"D  c #D19C34",
"F  c #DB9B3A",
"G  c #E19A34",
"H  c #E59F38",
"J  c #E6A13A",
"K  c #E6A33B",
"L  c #E7A33C",
"P  c #E5A83D",
"I  c #A98658",
"U  c #C2884F",
"Y  c #C78357",
"T  c #CA8959",
"R  c #EC9758",
"E  c #EB9C59",
"W  c #ED985C",
"Q  c #DEA340",
"!  c #D4AC53",
"~  c #EEAE45",
"^  c #EEB243",
"/  c #EEB244",
"(  c #EFB146",
")  c #EEB246",
"_  c #EEB247",
"`  c #F1B64A",
"'  c #E0A451",
"]  c #F0BC54",
"[  c #F0BD54",
"{  c #F2BD55",
"}  c #F4BD57",
"|  c #ED9C63",
" . c #F1AF71",
".. c #F6C052",
"X. c #F8C153",
"o. c #F9C257",
"O. c #F9C754",
"+. c #FBC557",
"@. c #FFCA52",
"#. c #FFCB56",
"$. c #F6C258",
"%. c #FAC258",
"&. c #F9C45B",
"*. c #FFCB58",
"=. c #FDC95A",
"-. c #FCC95B",
";. c #FEC95A",
":. c #FEC85B",
">. c #FFCB5A",
",. c #FFCA5B",
"<. c #FFCB5B",
"1. c #FECC5B",
"2. c #FFCB5C",
"3. c #FFCA5D",
"4. c #FFCB5D",
"5. c #FECC5C",
"6. c #FECD5C",
"7. c #FDCC62",
"8. c #FFCD62",
"9. c #FFCD63",
"0. c #FCCB64",
"q. c #FFCD67",
"w. c #F1C36C",
"e. c #FBCC69",
"r. c #FBCF68",
"t. c #FFCD6A",
"y. c #D8B684",
"u. c #F9D28E",
"i. c #FED48C",
"p. c #FCCC9B",
"a. c #FBD497",
"s. c white",
/* pixels */
"        s.s.s.s.        s.s.s.s.        s.s.s.s.        s.s.s.s.",
"        s.s.s.s.        s.s.s.s.        s.s.s.s.        s.s.s.s.",
"        s.s.s.s.        s.s.s.s.        s.s.s.s.        s.s.s.s.",
"        s.s.s.s.        . . . .         s.s.s.s.        s.s.s.s.",
"s.s.s.s.        s.s.s.s.    . . . . s.s.        s.s.s.s.        ",
"s.s.s.s.        s.s.s.s.  . . . . . . s.        s.s.s.s.        ",
"s.s.s.s.        s.s.s.s.O p.p.p.p.p.p.s.        s.s.s.s.        ",
"s.s.s.s.        s.s.s.s..  .  < E   < $         s.s.s.s.        ",
"        s.s.s.s.        X  . .E E p.p.$ s.s.s.s.        s.s.s.s.",
"        s.s.s.s.        + =  .0 0 - - * s.s.s.s.        s.s.s.s.",
"        s.s.u.e.O.f y.p.p.o @ & # % % p.S V U @.i.      s.s.s.s.",
"        s.Y Y Y Y : t ' p.p. .E | E p.p.F v 1 W W Y     s.s.s.s.",
"s.s.s.s.Y Y W a.w.: t ' p.p. .E | E p.p.F v 1 W W W Y s.        ",
"s.s.s.s.Y W W W T D [ } A p.p.p.p.E p.C >...Q W W W W Y         ",
"s.s.s.s.Y W W Y w { =.:.%.q.9.8.r.t.t.o.<.;.] > W W W Y         ",
"s.s.s.Y W W W c r &.<.<.7.7.*.#.7.7.3.4.7.<.$.q 7.W W W         ",
"      Y W W W e ! -.<.<.<.7.7.7.7.7.7.7.7.<.2.0.I W W Y s.s.s.s.",
"      Y W W W B M P X.<.<.1.7.7.7.7.7.<.,.+.` N W W W   s.s.s.s.",
"        W W W W W W H ~ 2.5.6.6.7.7.<.K L J G W W W Y   s.s.s.s.",
"        s.Y W W W W W Z ( _ / ^ ) ( ( H H H W W W Y     s.s.s.s.",
"s.s.s.s.      Y Y Y W b b n n n n b b b b b m Y Y s.s.s.        ",
"s.s.s.s.        u u u u u s u u i a a i p a y d s.s.s.s.        ",
"s.s.s.s.        s.x z l k h h h h h h h h h g j s.s.s.s.        ",
"s.s.s.s.        s.6 6 6 6 6 6 3 3 3 3 3 3 2 4 7 s.s.s.s.        ",
"        s.s.s.s.  6 6 6 6 6 6 6 8 5 5 6 6 6 6 7         s.s.s.s.",
"        s.s.s.s.  , 6 6 6 6 , , , , , 5 6 6 6 ,         s.s.s.s.",
"        s.s.s.s.  , 6 6 6 6 , s.    , 4 6 6 9 ,         s.s.s.s.",
"        s.s.s.s.    6 6 6 6 s.s.    , 6 6 6 6 s.        s.s.s.s.",
"s.s.s.s.        s.s.p.W R W     s.s.s.W W W p.  s.s.s.s.        ",
"s.s.s.s.        s.s.p.W W ;     s.s.s.; W W p.  s.s.s.s.        ",
"s.s.s.s.        s.s.; ; ; ;     s.s.s.; ; ; ;   s.s.s.s.        ",
"s.s.s.s.        ; ; ; ; ; ;     s.s.s.; ; ; ; ; ; s.s.s.        "
};
