/* XPM */
static char *f5ce29061a6a447195792144364d06057mW72BLUUUEPvKhX[] = {
/* columns rows colors chars-per-pixel */
"30 20 3 1 ",
"  c black",
". c #11F7F4",
"X c white",
/* pixels */
"                              ",
" ............................ ",
" ............................ ",
" ............................ ",
" ...XXXXXXXXXXXXXXXXXXXXXX... ",
" ...XXXXXXXXXXXXXXXXXXXXXX... ",
" ...XXXXXXXXXXXXXXXXXXXXXX... ",
" ...XXXXXXXXXXXXXXXXXXXXXX... ",
" ...XXXXXXXXXXXXXXXXXXXXXX... ",
" ...XXXXXXXXXXXXXXXXXXXXXX... ",
" ...XXXXXXXXXXXXXXXXXXXXXX... ",
" ...XXXXXXXXXXXXXXXXXXXXXX... ",
" ...XXXXXXXXXXXXXXXXXXXXXX... ",
" ...XXXXXXXXXXXXXXXXXXXXXX... ",
" ...XXXXXXXXXXXXXXXXXXXXXX... ",
" ...XXXXXXXXXXXXXXXXXXXXXX... ",
" ............................ ",
" ............................ ",
" ............................ ",
"                              "
};
