/* XPM */
static char *_0c35738ea26417488b06f377111bafeC7sk3H7vCxKuZ6ke[] = {
/* columns rows colors chars-per-pixel */
"32 32 7 1 ",
"  c None",
". c black",
"X c #66290E",
"o c #734A38",
"O c #9C5A3C",
"+ c #F5E49C",
"@ c white",
/* pixels */
"...XXXXXXXXXXXXXXXXXXXXXXXXXX@@@",
"..XOOOOOOOOOOOOOOOOOOOOOOOOOOX@@",
".XOOOOOOOOOOOOOOOOOOOOOOOOOOOOX@",
".XOOOOOOOOOOOOOOOooOOOOOOOOOOOX@",
"@XXXXXXXXXXXXXXXXXXXXXXXXXXoooX.",
"@XOOOOOOOOOOOOOOOOOOOOOOOOOOOOX.",
"@XOOOOOOOOOOOOOOOOOOOOOOOOOOOOX.",
"@XXXXXoXooXXXXXXXXXXXXXXXXXXXXX.",
".XOOOOOooOOOOOOOOOOOOOOOOOOOOOX@",
".XOOOOOOOOOOOOOOOOOOOOOOOOOOOOX@",
".XXXXXXXXXXXXXXXXXoooXoXXXXXXXX@",
".XOOOOOOOOOOOOOOOOOOoooOOOOOOOX@",
"@XOOOooOOOOOOOOOOOOOOOOOOOOOOOX.",
"@XXXXoXXXXXXXXXXXXXXXXXXXXXXXXX.",
"@XOOoOOOOOOOOOOOOOOOOOOOOOOOOOX.",
"@XOOOOOOOOOOOOOOOOOOooOOOOOOOOX.",
".XXXXXXXXXXXXXXXXXXXoXXXXXXXXXX@",
".XOOOOOOOOOOOOOOOOOOOOOOOOOOOOX@",
".XXXXXXXXXoooXXXXXXXXXXXXXXXXXX@",
".XOOOOoOOOOOOOOOOOOOOOOOOOOOOOX@",
"@XOOOoOOOOOOOOOOOOOOOOOOOOOOOOX.",
" XXXXXXXXXXXXXXXXXXXXXXXXXXXXXX.",
"@X++++++++++++++++++++++++++++X.",
"@@XOOOOXXXXXXXXXXXXXXXXXXOOOOX..",
"...XOOX@....@@@@....@@@@.XOOX@@@",
"...XOOX@....@@@@....@@@@.XOOX@@@",
"...XOOX@....@@@@....@@@@.XOOX@@@",
"...XOOX@....@@@@....@@@@.XOOX@@@",
"@@@XOOX.@@@@....@@@@....@XOOX...",
"@@@XOOX.@@@@....@@@@....@XOOX...",
"@@@@XX..@@@@....@@@@....@ XX....",
"@@@@....@@@@....@@@@....@@@@...."
};
